<svg preserveAspectRatio="none" width="100%" height="100%" overflow="visible" style="display: block;" viewBox="0 0 628.97 284.379" fill="none" xmlns="http://www.w3.org/2000/svg">
<g id="Nexus">
<g id="Vector (Stroke)">
<path d="M203.241 38.521C201.742 37.5455 186.324 41.1077 183.516 41.6543C171.265 44.0393 161.005 51.0198 151.557 58.8025C146.753 62.7598 142.295 66.2179 138.171 70.943C146.627 69.0094 145.004 69.4758 153.053 65.5173L153.913 66.6024C137.88 91.5318 126.085 118.597 114.602 145.815C114.854 142.441 114.29 133.208 114.135 129.537L113.182 103.242L112.249 70.7745C112.024 63.3992 112.167 55.4104 110.461 48.1959C109.044 42.2001 104.877 44.4161 101.117 46.8693C94.2021 51.3818 86.3164 54.8631 79.5274 59.5848C78.0621 60.5881 76.7289 61.7733 75.5606 63.111C72.3534 66.825 65.7557 80.4931 63.2987 85.5076C54.3116 103.647 45.69 121.966 37.4387 140.452C35.1459 145.54 32.9383 150.667 30.8173 155.83C29.9094 158.092 27.7661 164.016 26.7686 165.879L26.6718 166.057C25.2333 168.743 14.6214 173.387 13.9692 176.639C14.9219 177.134 20.1518 176.273 21.334 175.83C23.9337 174.857 26.486 173.392 29.0365 172.248C34.1159 170.026 39.2884 168.025 44.5395 166.247C47.3065 165.335 52.3837 164.528 54.4224 162.859L54.61 162.695L54.623 162.172C52.4348 160.933 39.841 163.958 36.5656 164.602L63.5422 116.023C68.2011 107.684 73.3507 97.88 78.3052 89.8516C77.0096 97.2301 76.0665 109.366 75.3751 116.987L71.7936 155.714L71.4662 159.141C69.3789 180.647 60.9706 264.586 67.2157 270.393C71.576 271.315 109.58 242.269 117.49 236.648L118.159 236.179C120.442 234.611 121.242 225.166 121.861 221.935C123.084 215.744 124.552 209.603 126.261 203.529C132.822 180.363 141.489 156.076 149.158 133.208C157.531 108.243 166.63 82.6615 178.428 59.1333C179.444 57.1078 182.405 50.8663 184 49.6684L184.157 49.5525C188.317 46.4422 198.598 42.6793 203.067 39.7214C203.426 39.4834 203.287 38.9197 203.241 38.521Z" fill="var(--fill-0, black)"/>
<path fill-rule="evenodd" clip-rule="evenodd" d="M403.799 43.0136C402.185 40.7996 382.957 41.0641 379.381 41.1967C374.86 41.5768 358.246 42.3198 355.12 44.5455L354.934 45.0871C355.862 46.1948 357.886 46.3969 359.338 46.6851C350.93 52.3486 342.017 62.1588 335.028 69.5209C329.579 75.2595 324.043 80.8228 318.758 86.7277C312.85 73.9927 306.705 60.3181 299.798 48.1563C301.657 47.567 306.604 46.6441 307.484 45.5106L307.188 45.0714C306.243 44.9783 305.635 45.1558 304.719 45.3408C298.347 46.6258 291.253 46.9548 285.844 50.9609C285.192 51.4437 284.69 52.0287 284.449 52.8072C285.211 55.7723 290.09 52.9257 291.492 51.6027C294.739 67.216 299.128 86.3522 303.774 101.654C293.342 112.664 281.334 122.958 270.202 133.292C265.966 137.224 261.534 139.953 256.401 142.508C236.18 153.774 198.792 169.008 189.009 137.206L188.783 136.447C186.118 127.165 188.715 117.431 192.69 109.016C210.028 104.168 224.409 97.3839 239.067 87.3225C250.572 79.426 264.903 70.8326 271.717 58.4355C282.354 39.0794 257.264 41.1804 246.742 44.9063C232.846 49.8269 222.777 58.0113 210.582 65.8556C195.477 76.5722 182.836 92.2134 173.825 108.215L173.132 109.483C165.974 122.446 158.744 131.223 157.311 146.675C156.725 152.484 157.335 158.352 159.102 163.918L159.278 164.459C174.516 209.953 248.859 155.514 269.97 140.055L270.064 139.987C281.985 131.258 296.111 122.212 306.546 111.709C308.454 120.905 312.17 132.778 314.655 142.187C321.177 165.914 327.294 189.751 333.004 213.687C334.381 219.75 335.681 225.83 336.9 231.927C337.624 235.629 338.624 241.947 339.849 245.458C331.855 251.234 328.282 255.83 321.563 261.897C324.734 261.329 328.27 261.26 331.231 259.968C340.471 255.935 412.734 214.189 416.025 208.967C416.399 208.372 416.246 207.944 416.135 207.303C413.923 205.507 405.015 208.305 402.021 208.935C395.616 210.279 385.867 211.078 380.349 214.654C376.956 208.101 373.207 201.758 369.812 195.216C353.077 162.959 338.454 129.546 323.258 96.5493C328.953 92.2837 332.378 87.9187 337.271 83.237C343.717 77.0671 349.574 71.3422 355.664 64.7738C361.204 58.8016 366.12 54.4311 370.477 47.3153C373.716 47.4659 376.42 46.971 379.474 47.0623C377.223 50.8469 373.584 55.3564 371.791 59.0323C363.329 76.3826 357.191 100.453 362.359 119.436C364.985 129.09 372.012 144.61 380.92 149.884C387.388 153.713 396.367 153.103 403.206 151.259C419.584 146.845 432.99 137.642 444.029 124.906C447.353 121.073 450.485 118.3 453.165 113.655C457.725 105.759 457.471 96.3635 455.033 87.8293C451.09 74.0263 442.346 57.9827 434.193 46.2486C437.005 46.0825 439.083 45.7596 441.778 44.849C435.574 43.4527 421.312 42.5105 415.42 44.5946L415.051 44.9861C416.596 45.7416 423.348 45.7935 425.288 45.6989C426.357 50.5644 429.537 57.2947 431.406 62.1377C438.152 79.6371 449.596 104.339 441.439 122.808C438.358 124.476 434.49 126.664 431.295 127.941C423.705 130.974 413.261 132.445 405.205 130.361L404.823 130.26C395.215 127.614 387.903 116.45 383.256 108.111C374.259 91.9557 376.172 75.5482 379.525 58.2575C380.232 54.6199 381.663 50.5607 382.274 47.0794C386.466 47.3887 400.146 45.3233 403.437 43.4924L403.799 43.0136ZM250.163 60.335C245.885 57.9985 243.273 58.0794 238.748 58.2197C238.483 58.2279 238.21 58.2364 237.931 58.2446C235.708 58.5661 233.53 59.0025 231.358 59.4378C229.433 59.8234 227.513 60.2081 225.571 60.511C210.617 73.5857 204.214 86.3252 195.625 103.413C195.467 103.728 195.308 104.045 195.148 104.363C196.562 103.812 198.269 103.226 199.977 102.64C202.167 101.889 204.356 101.138 205.927 100.46C207.029 100.021 208.152 99.5797 209.291 99.1319C224.966 92.9693 243.619 85.6364 250.804 69.626C252.316 66.2589 252.328 63.3896 250.163 60.335Z" fill="var(--fill-0, black)"/>
<path d="M281.128 69.7269C276.717 76.0969 271.16 81.2602 265.862 85.4864C259.466 90.5887 252.2 95.2508 246.972 98.839C232.977 108.445 219.08 115.362 203.11 120.473C201.55 125.25 201.268 129.312 202.21 132.591L202.355 133.083C203.88 138.058 205.955 139.874 207.436 140.729C209.304 141.806 212.38 142.552 217.251 142.121C227.373 141.226 239.785 135.775 249.603 130.305L249.888 130.151C249.983 130.1 250.08 130.051 250.177 130.003C254.573 127.814 257.758 125.785 260.699 123.055C270.281 114.16 279.539 106.128 288.085 97.6986C285.585 88.6955 283.222 78.9899 281.128 69.7269Z" fill="var(--fill-0, black)"/>
<path d="M407.717 56.873C405.81 57.6293 403.931 58.1217 402.674 58.4314C400.399 58.9922 397.863 59.4819 395.43 59.8767C394.783 59.9818 394.1 60.0861 393.393 60.1884C393.335 60.4425 393.283 60.6855 393.237 60.9216C389.93 77.9747 389.097 89.8902 395.459 101.314C397.615 105.182 400.057 109.083 402.734 112.171C405.544 115.413 407.557 116.524 408.531 116.793C412.887 117.992 420.337 117.277 426.112 114.97L426.536 114.794C427.525 114.375 428.634 113.824 429.869 113.177C430.724 108.622 430.297 102.801 428.465 95.5174C426.053 85.9291 422.023 76.6316 418.372 67.1617C417.416 64.6824 416.573 62.8344 415.14 59.2704C414.213 59.1557 411.49 58.7935 408.915 57.5345C408.503 57.333 408.104 57.1113 407.717 56.873Z" fill="var(--fill-0, black)"/>
<path d="M346.929 93.328L346.928 93.3287C345.27 94.915 342.978 97.4027 340.256 100.108C342.537 105.098 344.804 110.076 347.066 115.041C347.074 115.06 347.083 115.078 347.091 115.097C347.094 115.105 347.098 115.112 347.101 115.12L347.313 115.585C346.212 108.215 346.278 100.6 347.163 93.1029C347.085 93.1777 347.008 93.2531 346.929 93.328Z" fill="var(--fill-0, black)"/>
<path d="M327.492 48.4755C327.032 48.6197 326.63 48.7316 326.307 48.8172C324.366 49.3316 322.41 49.6296 320.772 49.8171C320.306 51.2549 319.603 52.6318 318.662 53.8869C320.047 56.6422 321.4 59.4168 322.722 62.1807C323.461 61.4108 324.188 60.651 324.899 59.9019C327.489 57.1739 330.701 53.6993 334.272 50.0824C332.011 49.8443 329.712 49.3464 327.492 48.4755Z" fill="var(--fill-0, black)"/>
<path d="M365.569 155.103C369.901 164.239 374.317 173.311 378.886 182.305C379.045 182.119 379.21 181.936 379.38 181.757C381.205 179.835 382.89 177.551 385.483 174.146C387.169 171.932 389.218 169.282 391.634 166.664C385.967 166.535 379.902 165.359 374.338 162.213L373.804 161.903C370.705 160.068 367.967 157.697 365.569 155.103Z" fill="var(--fill-0, black)"/>
<path d="M510.243 42.8315C509.228 42.8097 506.785 42.7618 505.839 42.9666C502.83 43.4742 499.82 43.7652 496.886 44.6553C486.206 47.894 477.157 56.3034 470.824 65.2199C466.141 71.8121 461.935 80.7569 463.381 89.0576C465.896 103.506 496.237 130.663 508.124 140.27C516.825 147.301 526.157 153.469 534.685 160.735C542.76 167.614 554.103 178.584 560.232 187.085C567.78 197.562 572.023 210.073 575.789 222.282C550.111 223.758 530.278 217.096 506.797 207.516C500.461 204.931 493.931 202.307 487.697 199.487C485.412 198.454 482.833 196.569 480.511 195.306L480.05 195.062C472.756 191.314 465.722 187.098 458.521 183.166C456.596 182.115 453.994 179.835 451.961 178.563C445.391 174.455 437.203 170.096 431.394 164.979L431.181 164.789C433.775 163.189 445.541 156.177 446.185 154.017C445.727 152.107 443.733 151.768 442.239 152.579C429.828 159.316 414.573 164.154 404.171 173.843C398.548 179.082 394.481 186.138 389.511 191.374C397.245 188.196 403.56 183.076 410.689 178.547C412.186 182.025 414.773 186.295 416.671 189.637C425.202 204.644 434.819 215.482 448.191 226.44C466.078 242.67 497.949 262.146 521.636 268.598C530.013 270.88 548.681 270.938 557.313 268.77L557.716 268.665C572.711 264.624 587.772 253.281 598.082 241.775C608.756 230.016 616.217 216.041 614.837 199.72C613.793 180.218 600.495 155.695 586.493 141.887L585.826 141.238C579.679 135.333 562.636 124.741 554.276 119.976C533.523 107.769 497.961 95.981 493.14 69.0749C492.742 66.8566 494.53 57.3628 495.359 57.1117C507.548 53.4294 524.053 61.0883 531.903 70.2153L532.771 71.2288C536.868 76.044 537.476 77.1835 540.003 79.9379C538.673 81.2193 535.338 84.094 535.08 85.7272C537.158 87.2408 540.47 84.5773 542.575 83.7131C552.164 79.7805 560.759 72.4505 566.508 63.8087L567.056 62.9685L567.097 62.9023C567.493 62.2739 567.793 61.7955 567.691 61.0273L567.663 60.8636C565.555 59.0306 560.513 63.4402 558.894 64.9737C556.381 62.345 552.258 58.1922 549.464 56.0688C538.577 47.7878 523.885 43.1267 510.243 42.8315Z" fill="var(--fill-0, black)"/>
<path d="M465.955 119.384C465.733 119.803 465.503 120.22 465.263 120.635L465.263 120.636C461.694 126.823 456.631 131.693 454.584 134.054C453.022 135.855 451.413 137.601 449.754 139.288C454.628 141.151 458.457 145.292 459.768 150.759C460.342 153.15 460.274 155.65 459.572 158.007C458.571 161.365 456.53 163.668 455.742 164.497C456.448 164.923 457.17 165.36 457.907 165.814L459.367 166.72L459.369 166.721C461.027 167.758 462.795 169.121 463.672 169.78C464.233 170.201 464.635 170.498 464.965 170.729C464.97 170.732 464.974 170.735 464.978 170.738C465.155 170.861 465.253 170.925 465.286 170.945L465.288 170.946L465.29 170.947C465.291 170.948 465.293 170.949 465.295 170.95L465.296 170.951C473.235 175.289 479.245 178.943 486.431 182.637C488.3 183.597 490.221 184.827 491.263 185.477C492.302 186.125 492.873 186.459 493.2 186.633L493.452 186.76L493.454 186.76C497.906 188.774 502.524 190.687 507.277 192.627L512.073 194.582C528.176 201.152 541.546 205.89 555.811 207.704C553.832 203.162 551.602 199.003 548.901 195.254C543.753 188.114 533.415 178.003 525.626 171.368C521.755 168.069 517.624 164.955 513.146 161.632C508.774 158.389 503.976 154.878 499.344 151.135L499.344 151.134C493.058 146.054 482.04 136.464 472.152 126.143C470.054 123.954 467.965 121.687 465.955 119.384Z" fill="var(--fill-0, black)"/>
<path d="M397.131 12.3909C393.281 13.4111 384.469 17.5459 389.31 22.5705C392.774 26.1626 396.452 26.9382 399.281 31.4378C395.538 30.1912 394.712 29.1783 391.475 27.3483C389.169 28.2043 385.405 29.9526 385.735 32.8156C386.663 34.1583 388.169 34.3085 389.78 34.7035C391.954 35.116 394.233 35.603 396.421 34.9988C398.921 34.3092 403.778 31.7938 404.182 29.0029C405.012 23.2789 393.05 20.7599 392.759 16.4C394.723 12.2939 399.673 16.2283 402 14.568C401.287 12.8173 398.766 12.4778 397.131 12.3909Z" fill="var(--fill-0, black)"/>
<path d="M382.154 9.81406C377.953 13.2966 377.156 19.9214 376.046 25.1411C372.899 22.0393 369.722 18.8142 366.506 15.7882C362.56 12.0704 362.446 15.5626 361.341 14.585L361.171 13.12L360.746 12.9276C357.578 14.5473 357.617 25.9226 357.015 29.2921C356.841 30.2527 356.595 34.0113 356.967 34.7438C357.568 34.7608 357.616 34.785 358.14 34.5282C359.066 33.8874 360.164 33.1707 361.051 32.508C362.129 28.9583 362.281 23.6085 362.53 19.7666C365.602 23.4123 371.779 31.4813 374.878 34.2418C376.827 32.9484 380.04 30.9562 381.795 29.5752C382.627 25.2601 384.214 13.8932 382.579 10.0466L382.154 9.81406Z" fill="var(--fill-0, black)"/>
<path fill-rule="evenodd" clip-rule="evenodd" d="M353.009 25.9644C356.985 18.2464 350.4 11.3638 342.415 12.706L342.28 12.7728C340.487 13.654 338.212 13.444 337.738 13.7379C328.714 19.3347 321.548 37.3139 339.121 36.2477C344.056 34.6178 350.562 30.7149 353.009 25.9644ZM341.558 16.046C340.214 15.8049 338.656 15.9286 337.187 16.0453C336.883 16.0694 336.582 16.0933 336.289 16.1135C334.456 17.8542 332.887 22.2608 332.863 24.7619C332.798 31.2801 339.687 31.8103 344.565 31.7591C346.499 30.6438 347.559 28.7007 348.152 26.465C349.409 21.7014 346.466 16.9263 341.558 16.046Z" fill="var(--fill-0, black)"/>
<path fill-rule="evenodd" clip-rule="evenodd" d="M465.29 170.947L465.288 170.946L465.286 170.945C465.287 170.946 465.289 170.947 465.29 170.947ZM465.233 170.916C465.24 170.92 465.246 170.923 465.252 170.926L465.253 170.927C465.246 170.923 465.24 170.92 465.233 170.916ZM238.748 58.2197C238.483 58.2279 238.21 58.2364 237.931 58.2446C235.708 58.5661 233.53 59.0025 231.358 59.4378C229.433 59.8234 227.513 60.2081 225.571 60.511C210.617 73.5857 204.214 86.3252 195.625 103.413C195.467 103.728 195.308 104.045 195.148 104.363C196.562 103.812 198.269 103.226 199.977 102.64C202.167 101.889 204.356 101.138 205.927 100.46C207.029 100.021 208.152 99.5797 209.291 99.1319C224.966 92.9693 243.619 85.6364 250.804 69.626C252.316 66.2589 252.328 63.3896 250.163 60.335C245.885 57.9985 243.273 58.0794 238.748 58.2197ZM337.187 16.0453C336.883 16.0694 336.582 16.0933 336.289 16.1135C334.456 17.8542 332.887 22.2608 332.863 24.7619C332.798 31.2801 339.687 31.8103 344.565 31.7591C346.499 30.6438 347.559 28.7007 348.152 26.465C349.409 21.7014 346.466 16.9263 341.558 16.046C340.214 15.8049 338.656 15.9286 337.187 16.0453ZM253.794 31.4515C258.321 29.311 258.657 12.7351 246.86 12.6275C243.114 17.8934 241.953 25.0759 247.835 29.5663C249.565 30.8872 251.254 31.1124 253.28 31.3823C253.449 31.4049 253.621 31.4277 253.794 31.4515ZM279.839 17.689C278.285 13.8094 274.885 12.6242 271.132 12.0307C270.518 15.796 270.344 19.9478 270.184 23.7753L270.175 23.9769C272.6 22.3525 273.867 22.0652 276.74 21.4778C278.365 21.1055 280.616 19.629 279.839 17.689Z" fill="var(--fill-0, black)"/>
<path fill-rule="evenodd" clip-rule="evenodd" d="M183.516 41.6543C186.324 41.1077 201.742 37.5455 203.241 38.521C203.287 38.9197 203.426 39.4834 203.067 39.7214C198.598 42.6793 188.317 46.4422 184.157 49.5525L184 49.6684C182.405 50.8663 179.444 57.1078 178.428 59.1333C166.63 82.6615 157.531 108.243 149.158 133.208C141.489 156.076 132.822 180.363 126.261 203.529C124.552 209.603 123.084 215.744 121.861 221.935C121.242 225.166 120.442 234.611 118.159 236.179L117.49 236.648C109.58 242.269 71.576 271.315 67.2157 270.393C60.9706 264.586 69.3789 180.647 71.4662 159.141L71.7936 155.714L75.3751 116.987C76.0665 109.366 77.0096 97.2301 78.3052 89.8516C73.3507 97.88 68.2011 107.684 63.5422 116.023L36.5656 164.602C39.841 163.958 52.4348 160.933 54.623 162.172L54.61 162.695L54.4224 162.859C52.3837 164.528 47.3065 165.335 44.5395 166.247C39.2884 168.025 34.1159 170.026 29.0365 172.248C26.486 173.392 23.9337 174.857 21.334 175.83C20.1518 176.273 14.9219 177.134 13.9692 176.639C14.6214 173.387 25.2333 168.743 26.6718 166.057L26.7686 165.879C27.7661 164.016 29.9094 158.092 30.8173 155.83C32.9383 150.667 35.1459 145.54 37.4387 140.452C45.69 121.966 54.3116 103.647 63.2987 85.5076C65.7557 80.4931 72.3534 66.825 75.5606 63.111C76.7289 61.7733 78.0621 60.5881 79.5274 59.5848C86.3164 54.8631 94.2021 51.3818 101.117 46.8693C104.877 44.4161 109.044 42.2001 110.461 48.1959C112.167 55.4104 112.024 63.3992 112.249 70.7745L113.182 103.242L114.135 129.537C114.29 133.208 114.854 142.441 114.602 145.815C126.085 118.597 137.88 91.5318 153.913 66.6024L153.053 65.5173C145.004 69.4758 146.627 69.0094 138.171 70.943C142.295 66.2179 146.753 62.7598 151.557 58.8025C161.005 51.0198 171.265 44.0393 183.516 41.6543ZM505.839 42.9666C506.785 42.7618 509.228 42.8097 510.243 42.8315C523.885 43.1267 538.577 47.7878 549.464 56.0688C552.258 58.1922 556.381 62.345 558.894 64.9737C560.513 63.4402 565.555 59.0306 567.663 60.8636L567.691 61.0273C567.793 61.7955 567.493 62.2739 567.097 62.9023L567.056 62.9685L566.508 63.8087C560.759 72.4505 552.164 79.7805 542.575 83.7131C540.47 84.5773 537.158 87.2408 535.08 85.7272C535.338 84.094 538.673 81.2193 540.003 79.9379C537.476 77.1835 536.868 76.044 532.771 71.2288L531.903 70.2153C524.053 61.0883 507.548 53.4294 495.359 57.1117C494.53 57.3628 492.742 66.8566 493.14 69.0749C497.961 95.981 533.523 107.769 554.276 119.976C562.636 124.741 579.679 135.333 585.826 141.238L586.493 141.887C600.495 155.695 613.793 180.218 614.837 199.72C616.217 216.041 608.756 230.016 598.082 241.775C587.772 253.281 572.711 264.624 557.716 268.665L557.313 268.77C548.681 270.938 530.013 270.88 521.636 268.598C497.949 262.146 466.078 242.67 448.191 226.44C434.819 215.482 425.202 204.644 416.671 189.637C414.773 186.295 412.186 182.025 410.689 178.547C403.56 183.076 397.245 188.196 389.511 191.374C394.481 186.138 398.548 179.082 404.171 173.843C414.573 164.154 429.828 159.316 442.239 152.579C443.733 151.768 445.727 152.107 446.185 154.017C445.541 156.177 433.775 163.189 431.181 164.789L431.394 164.979C437.203 170.096 445.391 174.455 451.961 178.563C453.994 179.835 456.596 182.115 458.521 183.166C465.722 187.098 472.756 191.314 480.05 195.062L480.511 195.306C482.833 196.569 485.412 198.454 487.697 199.487C493.931 202.307 500.461 204.931 506.797 207.516C530.278 217.096 550.111 223.758 575.789 222.282C572.023 210.073 567.78 197.562 560.232 187.085C554.103 178.584 542.76 167.614 534.685 160.735C526.157 153.469 516.825 147.301 508.124 140.27C496.237 130.663 465.896 103.506 463.381 89.0576C461.935 80.7569 466.141 71.8121 470.824 65.2199C477.157 56.3034 486.206 47.894 496.886 44.6553C499.82 43.7652 502.83 43.4742 505.839 42.9666ZM379.381 41.1967C382.957 41.0641 402.185 40.7996 403.799 43.0136L403.437 43.4924C400.146 45.3233 386.466 47.3887 382.274 47.0794C381.663 50.5607 380.232 54.6199 379.525 58.2575C376.172 75.5482 374.259 91.9557 383.256 108.111C387.903 116.45 395.215 127.614 404.823 130.26L405.205 130.361C413.261 132.445 423.705 130.974 431.295 127.941C434.49 126.664 438.358 124.476 441.439 122.808C449.596 104.339 438.152 79.6371 431.406 62.1377C429.537 57.2947 426.357 50.5644 425.288 45.6989C423.348 45.7935 416.596 45.7416 415.051 44.9861L415.42 44.5946C421.312 42.5105 435.574 43.4527 441.778 44.849C439.083 45.7596 437.005 46.0825 434.193 46.2486C442.346 57.9827 451.09 74.0263 455.033 87.8293C457.471 96.3635 457.725 105.759 453.165 113.655C450.485 118.3 447.353 121.073 444.029 124.906C432.99 137.642 419.584 146.845 403.206 151.259C396.367 153.103 387.388 153.713 380.92 149.884C372.012 144.61 364.985 129.09 362.359 119.436C357.191 100.453 363.329 76.3826 371.791 59.0323C373.584 55.3564 377.223 50.8469 379.474 47.0623C376.42 46.971 373.716 47.4659 370.477 47.3153C366.12 54.4311 361.204 58.8016 355.664 64.7738C349.574 71.3422 343.717 77.0671 337.271 83.237C332.378 87.9187 328.953 92.2837 323.258 96.5493C338.454 129.546 353.077 162.959 369.812 195.216C373.207 201.758 376.956 208.101 380.349 214.654C385.867 211.078 395.616 210.279 402.021 208.935C405.015 208.305 413.923 205.507 416.135 207.303C416.246 207.944 416.399 208.372 416.025 208.967C412.734 214.189 340.471 255.935 331.231 259.968C328.27 261.26 324.734 261.329 321.563 261.897C328.282 255.83 331.855 251.234 339.849 245.458C338.624 241.947 337.624 235.629 336.9 231.927C335.681 225.83 334.381 219.75 333.004 213.687C327.294 189.751 321.177 165.914 314.655 142.187C312.17 132.778 308.454 120.905 306.546 111.709C296.111 122.212 281.985 131.258 270.064 139.987L269.97 140.055C248.859 155.514 174.516 209.953 159.278 164.459L159.102 163.918C157.335 158.352 156.725 152.484 157.311 146.675C158.744 131.223 165.974 122.446 173.132 109.483L173.825 108.215C182.836 92.2134 195.477 76.5722 210.582 65.8556C222.777 58.0113 232.846 49.8269 246.742 44.9063C257.264 41.1804 282.354 39.0794 271.717 58.4355C264.903 70.8326 250.572 79.426 239.067 87.3225C224.409 97.3839 210.028 104.168 192.69 109.016C188.715 117.431 186.118 127.165 188.783 136.447L189.009 137.206C198.792 169.008 236.18 153.774 256.401 142.508C261.534 139.953 265.966 137.224 270.202 133.292C281.334 122.958 293.342 112.664 303.774 101.654C299.128 86.3522 294.739 67.216 291.492 51.6027C290.09 52.9257 285.211 55.7723 284.449 52.8072C284.69 52.0287 285.192 51.4437 285.844 50.9609C291.253 46.9548 298.347 46.6258 304.719 45.3408C305.635 45.1558 306.243 44.9783 307.188 45.0714L307.484 45.5106C306.604 46.6441 301.657 47.567 299.798 48.1563C306.705 60.3181 312.85 73.9927 318.758 86.7277C324.043 80.8228 329.579 75.2595 335.028 69.5209C342.017 62.1588 350.93 52.3486 359.338 46.6851C357.886 46.3969 355.862 46.1948 354.934 45.0871L355.12 44.5455C358.246 42.3198 374.86 41.5768 379.381 41.1967ZM465.263 120.635C465.503 120.22 465.733 119.803 465.955 119.384C467.965 121.687 470.054 123.954 472.152 126.143C482.04 136.464 493.058 146.054 499.344 151.134L499.344 151.135C503.976 154.878 508.774 158.389 513.146 161.632C517.624 164.955 521.755 168.069 525.626 171.368C533.415 178.003 543.753 188.114 548.901 195.254C551.602 199.003 553.832 203.162 555.811 207.704C541.546 205.89 528.176 201.152 512.073 194.582L507.277 192.627C502.524 190.687 497.906 188.774 493.454 186.76L493.452 186.76L493.2 186.633C492.873 186.459 492.302 186.125 491.263 185.477C490.221 184.827 488.3 183.597 486.431 182.637C479.245 178.943 473.235 175.289 465.296 170.951L465.295 170.95C465.293 170.949 465.291 170.948 465.29 170.947C465.289 170.947 465.287 170.946 465.286 170.945L465.283 170.944C465.276 170.94 465.27 170.937 465.263 170.933C465.271 170.937 465.278 170.941 465.283 170.944L465.286 170.945L465.288 170.946C465.259 170.927 465.16 170.864 464.978 170.738C464.974 170.735 464.97 170.732 464.965 170.729C464.635 170.498 464.233 170.201 463.672 169.78C462.795 169.121 461.027 167.758 459.369 166.721L459.367 166.72L457.907 165.814C457.17 165.36 456.448 164.923 455.742 164.497C456.53 163.668 458.571 161.365 459.572 158.007C460.274 155.65 460.342 153.15 459.768 150.759C458.457 145.292 454.628 141.151 449.754 139.288C451.413 137.601 453.022 135.855 454.584 134.054C456.631 131.693 461.694 126.823 465.263 120.636L465.263 120.635ZM378.886 182.305C374.317 173.311 369.901 164.239 365.569 155.103C367.967 157.697 370.705 160.068 373.804 161.903L374.338 162.213C379.902 165.359 385.967 166.535 391.634 166.664C389.218 169.282 387.169 171.932 385.483 174.146C382.89 177.551 381.205 179.835 379.38 181.757C379.21 181.936 379.045 182.119 378.886 182.305ZM265.862 85.4864C271.16 81.2602 276.717 76.0969 281.128 69.7269C283.222 78.9899 285.585 88.6955 288.085 97.6986C279.539 106.128 270.281 114.16 260.699 123.055C257.758 125.785 254.573 127.814 250.177 130.003C250.08 130.051 249.983 130.1 249.888 130.151L249.603 130.305C239.785 135.775 227.373 141.226 217.251 142.121C212.38 142.552 209.304 141.806 207.436 140.729C205.955 139.874 203.88 138.058 202.355 133.083L202.21 132.591C201.268 129.312 201.55 125.25 203.11 120.473C219.08 115.362 232.977 108.445 246.972 98.839C252.2 95.2508 259.466 90.5887 265.862 85.4864ZM402.674 58.4314C403.931 58.1217 405.81 57.6293 407.717 56.873C408.104 57.1113 408.503 57.333 408.915 57.5345C411.49 58.7935 414.213 59.1557 415.14 59.2704C416.573 62.8344 417.416 64.6824 418.372 67.1617C422.023 76.6316 426.053 85.9291 428.465 95.5174C430.297 102.801 430.724 108.622 429.869 113.177C428.634 113.824 427.525 114.375 426.536 114.794L426.112 114.97C420.337 117.277 412.887 117.992 408.531 116.793C407.557 116.524 405.544 115.413 402.734 112.171C400.057 109.083 397.615 105.182 395.459 101.314C389.097 89.8902 389.93 77.9747 393.237 60.9216C393.283 60.6855 393.335 60.4425 393.393 60.1884C394.1 60.0861 394.783 59.9818 395.43 59.8767C397.863 59.4819 400.399 58.9922 402.674 58.4314ZM346.928 93.3287L346.929 93.328C347.008 93.2531 347.085 93.1777 347.163 93.1029C346.278 100.6 346.212 108.215 347.313 115.585L347.101 115.12L347.091 115.097C347.083 115.078 347.074 115.06 347.066 115.041C344.804 110.076 342.537 105.098 340.256 100.108C342.978 97.4027 345.27 94.915 346.928 93.3287ZM129.003 81.4828C128.211 82.9569 127.43 84.4353 126.658 85.9161L126.446 78.5343C127.168 79.6503 128.032 80.6381 129.003 81.4828ZM521.115 85.4148C514.666 80.6865 510.465 76.0551 508.312 71.2097C508.91 71.3997 509.529 71.6182 510.167 71.8679C514.984 73.7533 519.079 76.7255 521.314 79.3241L521.317 79.3275C521.615 79.6738 521.895 80.0013 522.159 80.3117C521.791 81.2681 521.471 82.3555 521.282 83.5514C521.184 84.1734 521.129 84.7959 521.115 85.4148ZM194.65 59.5302C195.579 59.0501 196.626 58.543 197.796 57.9908C195.921 59.4749 194.088 61.019 192.301 62.6158C192.606 62.014 192.929 61.3893 193.271 60.7586C193.412 60.4991 193.543 60.2655 193.661 60.0575C193.948 59.8988 194.277 59.7233 194.65 59.5302ZM326.307 48.8172C326.63 48.7316 327.032 48.6197 327.492 48.4755C329.712 49.3464 332.011 49.8443 334.272 50.0824C330.701 53.6993 327.489 57.1739 324.899 59.9019C324.188 60.651 323.461 61.4108 322.722 62.1807C321.4 59.4168 320.047 56.6422 318.662 53.8869C319.603 52.6318 320.306 51.2549 320.772 49.8171C322.41 49.6296 324.366 49.3316 326.307 48.8172ZM229.384 19.5551C229.36 16.6588 228.999 10.307 230.512 8.04481C232.09 9.14155 233.857 20.3061 234.08 23.0807C234.403 27.0902 235.815 32.8856 233.137 36.2668C232.251 37.3853 230.632 38.0343 229.454 37.0464C228.313 34.462 228.776 25.1167 228.967 22.0344C225.493 23.0791 218.685 23.6693 214.862 24.1269C215.553 27.0082 216.11 30.7373 215.734 33.6763C214.497 35.0849 212.147 37.485 210.18 37.0048C208.898 34.8609 210.742 18.4207 210.895 14.9792C210.947 13.8238 211.099 11.9941 212.068 11.2191L212.68 11.5287C213.624 12.7961 214.535 20.7897 214.83 22.8419C218.145 21.7923 226.137 19.9292 229.384 19.5551ZM318.3 11.2266C319.881 11.0943 321.596 10.7291 322.881 11.5976C325.389 16.1532 309.344 30.6278 305.773 34.0617C309.757 33.9437 323.043 31.2904 325.423 33.6075L325.348 34.1258C323.09 36.139 314.979 36.2972 311.997 36.3002C308.658 36.1865 304.942 36.9124 301.343 36.925C304.507 32.2666 319.2 19.9086 319.138 14.6928C316.877 13.1701 305.968 15.4463 304.079 14.5066C305.534 13.1163 315.88 11.6143 318.3 11.2266ZM342.415 12.706C350.4 11.3638 356.985 18.2464 353.009 25.9644C350.562 30.7149 344.056 34.6178 339.121 36.2477C321.548 37.3139 328.714 19.3347 337.738 13.7379C338.212 13.444 340.487 13.654 342.28 12.7728L342.415 12.706ZM291.973 35.8248C290.574 33.4599 291.231 14.723 291.996 11.5008C293.391 11.6704 293.933 12.4047 294.212 13.7788C295.447 19.8488 296.479 26.1961 296.975 32.3654C297.046 33.2448 295.811 34.1674 295.188 34.7151C294.043 35.4203 293.254 36.0574 291.973 35.8248ZM389.31 22.5705C384.469 17.5459 393.281 13.4111 397.131 12.3909C398.766 12.4778 401.287 12.8173 402 14.568C399.673 16.2283 394.723 12.2939 392.759 16.4C393.05 20.7599 405.012 23.2789 404.182 29.0029C403.778 31.7938 398.921 34.3092 396.421 34.9988C394.233 35.603 391.954 35.116 389.78 34.7035C388.169 34.3085 386.663 34.1583 385.735 32.8156C385.405 29.9526 389.169 28.2043 391.475 27.3483C394.712 29.1783 395.538 30.1912 399.281 31.4378C396.452 26.9382 392.774 26.1626 389.31 22.5705ZM376.046 25.1411C377.156 19.9214 377.953 13.2966 382.154 9.81406L382.579 10.0466C384.214 13.8932 382.627 25.2601 381.795 29.5752C380.04 30.9562 376.827 32.9484 374.878 34.2418C371.779 31.4813 365.602 23.4123 362.53 19.7666C362.281 23.6085 362.129 28.9583 361.051 32.508C360.164 33.1707 359.066 33.8874 358.14 34.5282C357.616 34.785 357.568 34.7608 356.967 34.7438C356.595 34.0113 356.841 30.2527 357.015 29.2921C357.617 25.9226 357.578 14.5473 360.746 12.9276L361.171 13.12L361.341 14.585C362.446 15.5626 362.56 12.0704 366.506 15.7882C369.722 18.8142 372.899 22.0393 376.046 25.1411Z" fill="var(--fill-0, black)"/>
<path d="M322.881 11.5976C321.596 10.7291 319.881 11.0943 318.3 11.2266C315.88 11.6143 305.534 13.1163 304.079 14.5066C305.968 15.4463 316.877 13.1701 319.138 14.6928C319.2 19.9086 304.507 32.2666 301.343 36.925C304.942 36.9124 308.658 36.1865 311.997 36.3002C314.979 36.2972 323.09 36.139 325.348 34.1258L325.423 33.6075C323.043 31.2904 309.757 33.9437 305.773 34.0617C309.344 30.6278 325.389 16.1532 322.881 11.5976Z" fill="var(--fill-0, black)"/>
<path d="M291.996 11.5008C291.231 14.723 290.574 33.4599 291.973 35.8248C293.254 36.0574 294.043 35.4203 295.188 34.7151C295.811 34.1674 297.046 33.2448 296.975 32.3654C296.479 26.1961 295.447 19.8488 294.212 13.7788C293.933 12.4047 293.391 11.6704 291.996 11.5008Z" fill="var(--fill-0, black)"/>
<path fill-rule="evenodd" clip-rule="evenodd" d="M279.839 17.689C278.285 13.8094 274.885 12.6242 271.132 12.0307C270.518 15.796 270.344 19.9478 270.184 23.7753L270.175 23.9769C272.6 22.3525 273.867 22.0652 276.74 21.4778C278.365 21.1055 280.616 19.629 279.839 17.689Z" fill="var(--fill-0, black)"/>
<path fill-rule="evenodd" clip-rule="evenodd" d="M253.794 31.4515C258.321 29.311 258.657 12.7351 246.86 12.6275C243.114 17.8934 241.953 25.0759 247.835 29.5663C249.565 30.8872 251.254 31.1124 253.28 31.3823C253.449 31.4049 253.621 31.4277 253.794 31.4515Z" fill="var(--fill-0, black)"/>
<path d="M230.512 8.04481C228.999 10.307 229.36 16.6588 229.384 19.5551C226.137 19.9292 218.145 21.7923 214.83 22.8419C214.535 20.7897 213.624 12.7961 212.68 11.5287L212.068 11.2191C211.099 11.9941 210.947 13.8238 210.895 14.9792C210.742 18.4207 208.898 34.8609 210.18 37.0048C212.147 37.485 214.497 35.0849 215.734 33.6763C216.11 30.7373 215.553 27.0082 214.862 24.1269C218.685 23.6693 225.493 23.0791 228.967 22.0344C228.776 25.1167 228.313 34.462 229.454 37.0464C230.632 38.0343 232.251 37.3853 233.137 36.2668C235.815 32.8856 234.403 27.0902 234.08 23.0807C233.857 20.3061 232.09 9.14155 230.512 8.04481Z" fill="var(--fill-0, black)"/>
<path d="M197.796 57.9908C196.626 58.543 195.579 59.0501 194.65 59.5302C194.277 59.7233 193.948 59.8988 193.661 60.0575C193.543 60.2655 193.412 60.4991 193.271 60.7586C192.929 61.3893 192.606 62.014 192.301 62.6158C194.088 61.019 195.921 59.4749 197.796 57.9908Z" fill="var(--fill-0, black)"/>
<path d="M126.658 85.9161C127.43 84.4353 128.211 82.9569 129.003 81.4828C128.032 80.6381 127.168 79.6503 126.446 78.5343L126.658 85.9161Z" fill="var(--fill-0, black)"/>
<path d="M508.312 71.2097C510.465 76.0551 514.666 80.6865 521.115 85.4148C521.129 84.7959 521.184 84.1734 521.282 83.5514C521.471 82.3555 521.791 81.2681 522.159 80.3117C521.895 80.0013 521.615 79.6738 521.317 79.3275L521.314 79.3241C519.079 76.7255 514.984 73.7533 510.167 71.8679C509.529 71.6182 508.91 71.3997 508.312 71.2097Z" fill="var(--fill-0, black)"/>
<path fill-rule="evenodd" clip-rule="evenodd" d="M183.516 41.6543C186.324 41.1077 201.742 37.5455 203.241 38.521C203.287 38.9197 203.426 39.4834 203.067 39.7214C198.598 42.6793 188.317 46.4422 184.157 49.5525L184 49.6684C182.405 50.8663 179.444 57.1078 178.428 59.1333C166.63 82.6615 157.531 108.243 149.158 133.208C141.489 156.076 132.822 180.363 126.261 203.529C124.552 209.603 123.084 215.744 121.861 221.935C121.242 225.166 120.442 234.611 118.159 236.179L117.49 236.648C109.58 242.269 71.576 271.315 67.2157 270.393C60.9706 264.586 69.3789 180.647 71.4662 159.141L71.7936 155.714L75.3751 116.987C76.0665 109.366 77.0096 97.2301 78.3052 89.8516C73.3507 97.88 68.2011 107.684 63.5422 116.023L36.5656 164.602C39.841 163.958 52.4348 160.933 54.623 162.172L54.61 162.695L54.4224 162.859C52.3837 164.528 47.3065 165.335 44.5395 166.247C39.2884 168.025 34.1159 170.026 29.0365 172.248C26.486 173.392 23.9337 174.857 21.334 175.83C20.1518 176.273 14.9219 177.134 13.9692 176.639C14.6214 173.387 25.2333 168.743 26.6718 166.057L26.7686 165.879C27.7661 164.016 29.9094 158.092 30.8173 155.83C32.9383 150.667 35.1459 145.54 37.4387 140.452C45.69 121.966 54.3116 103.647 63.2987 85.5076C65.7557 80.4931 72.3534 66.825 75.5606 63.111C76.7289 61.7733 78.0621 60.5881 79.5274 59.5848C86.3164 54.8631 94.2021 51.3818 101.117 46.8693C104.877 44.4161 109.044 42.2001 110.461 48.1959C112.167 55.4104 112.024 63.3992 112.249 70.7745L113.182 103.242L114.135 129.537C114.29 133.208 114.854 142.441 114.602 145.815C126.085 118.597 137.88 91.5318 153.913 66.6024L153.053 65.5173C145.004 69.4758 146.627 69.0094 138.171 70.943C142.295 66.2179 146.753 62.7598 151.557 58.8025C161.005 51.0198 171.265 44.0393 183.516 41.6543ZM505.839 42.9666C506.785 42.7618 509.228 42.8097 510.243 42.8315C523.885 43.1267 538.577 47.7878 549.464 56.0688C552.258 58.1922 556.381 62.345 558.894 64.9737C560.513 63.4402 565.555 59.0306 567.663 60.8636L567.691 61.0273C567.793 61.7955 567.493 62.2739 567.097 62.9023L567.056 62.9685L566.508 63.8087C560.759 72.4505 552.164 79.7805 542.575 83.7131C540.47 84.5773 537.158 87.2408 535.08 85.7272C535.338 84.094 538.673 81.2193 540.003 79.9379C537.476 77.1835 536.868 76.044 532.771 71.2288L531.903 70.2153C524.053 61.0883 507.548 53.4294 495.359 57.1117C494.53 57.3628 492.742 66.8566 493.14 69.0749C497.961 95.981 533.523 107.769 554.276 119.976C562.636 124.741 579.679 135.333 585.826 141.238L586.493 141.887C600.495 155.695 613.793 180.218 614.837 199.72C616.217 216.041 608.756 230.016 598.082 241.775C587.772 253.281 572.711 264.624 557.716 268.665L557.313 268.77C548.681 270.938 530.013 270.88 521.636 268.598C497.949 262.146 466.078 242.67 448.191 226.44C434.819 215.482 425.202 204.644 416.671 189.637C414.773 186.295 412.186 182.025 410.689 178.547C403.56 183.076 397.245 188.196 389.511 191.374C394.481 186.138 398.548 179.082 404.171 173.843C414.573 164.154 429.828 159.316 442.239 152.579C443.733 151.768 445.727 152.107 446.185 154.017C445.541 156.177 433.775 163.189 431.181 164.789L431.394 164.979C437.203 170.096 445.391 174.455 451.961 178.563C453.994 179.835 456.596 182.115 458.521 183.166C465.722 187.098 472.756 191.314 480.05 195.062L480.511 195.306C482.833 196.569 485.412 198.454 487.697 199.487C493.931 202.307 500.461 204.931 506.797 207.516C530.278 217.096 550.111 223.758 575.789 222.282C572.023 210.073 567.78 197.562 560.232 187.085C554.103 178.584 542.76 167.614 534.685 160.735C526.157 153.469 516.825 147.301 508.124 140.27C496.237 130.663 465.896 103.506 463.381 89.0576C461.935 80.7569 466.141 71.8121 470.824 65.2199C477.157 56.3034 486.206 47.894 496.886 44.6553C499.82 43.7652 502.83 43.4742 505.839 42.9666ZM379.381 41.1967C382.957 41.0641 402.185 40.7996 403.799 43.0136L403.437 43.4924C400.146 45.3233 386.466 47.3887 382.274 47.0794C381.663 50.5607 380.232 54.6199 379.525 58.2575C376.172 75.5482 374.259 91.9557 383.256 108.111C387.903 116.45 395.215 127.614 404.823 130.26L405.205 130.361C413.261 132.445 423.705 130.974 431.295 127.941C434.49 126.664 438.358 124.476 441.439 122.808C449.596 104.339 438.152 79.6371 431.406 62.1377C429.537 57.2947 426.357 50.5644 425.288 45.6989C423.348 45.7935 416.596 45.7416 415.051 44.9861L415.42 44.5946C421.312 42.5105 435.574 43.4527 441.778 44.849C439.083 45.7596 437.005 46.0825 434.193 46.2486C442.346 57.9827 451.09 74.0263 455.033 87.8293C457.471 96.3635 457.725 105.759 453.165 113.655C450.485 118.3 447.353 121.073 444.029 124.906C432.99 137.642 419.584 146.845 403.206 151.259C396.367 153.103 387.388 153.713 380.92 149.884C372.012 144.61 364.985 129.09 362.359 119.436C357.191 100.453 363.329 76.3826 371.791 59.0323C373.584 55.3564 377.223 50.8469 379.474 47.0623C376.42 46.971 373.716 47.4659 370.477 47.3153C366.12 54.4311 361.204 58.8016 355.664 64.7738C349.574 71.3422 343.717 77.0671 337.271 83.237C332.378 87.9187 328.953 92.2837 323.258 96.5493C338.454 129.546 353.077 162.959 369.812 195.216C373.207 201.758 376.956 208.101 380.349 214.654C385.867 211.078 395.616 210.279 402.021 208.935C405.015 208.305 413.923 205.507 416.135 207.303C416.246 207.944 416.399 208.372 416.025 208.967C412.734 214.189 340.471 255.935 331.231 259.968C328.27 261.26 324.734 261.329 321.563 261.897C328.282 255.83 331.855 251.234 339.849 245.458C338.624 241.947 337.624 235.629 336.9 231.927C335.681 225.83 334.381 219.75 333.004 213.687C327.294 189.751 321.177 165.914 314.655 142.187C312.17 132.778 308.454 120.905 306.546 111.709C296.111 122.212 281.985 131.258 270.064 139.987L269.97 140.055C248.859 155.514 174.516 209.953 159.278 164.459L159.102 163.918C157.335 158.352 156.725 152.484 157.311 146.675C158.744 131.223 165.974 122.446 173.132 109.483L173.825 108.215C182.836 92.2134 195.477 76.5722 210.582 65.8556C222.777 58.0113 232.846 49.8269 246.742 44.9063C257.264 41.1804 282.354 39.0794 271.717 58.4355C264.903 70.8326 250.572 79.426 239.067 87.3225C224.409 97.3839 210.028 104.168 192.69 109.016C188.715 117.431 186.118 127.165 188.783 136.447L189.009 137.206C198.792 169.008 236.18 153.774 256.401 142.508C261.534 139.953 265.966 137.224 270.202 133.292C281.334 122.958 293.342 112.664 303.774 101.654C299.128 86.3522 294.739 67.216 291.492 51.6027C290.09 52.9257 285.211 55.7723 284.449 52.8072C284.69 52.0287 285.192 51.4437 285.844 50.9609C291.253 46.9548 298.347 46.6258 304.719 45.3408C305.635 45.1558 306.243 44.9783 307.188 45.0714L307.484 45.5106C306.604 46.6441 301.657 47.567 299.798 48.1563C306.705 60.3181 312.85 73.9927 318.758 86.7277C324.043 80.8228 329.579 75.2595 335.028 69.5209C342.017 62.1588 350.93 52.3486 359.338 46.6851C357.886 46.3969 355.862 46.1948 354.934 45.0871L355.12 44.5455C358.246 42.3198 374.86 41.5768 379.381 41.1967ZM465.263 120.635C465.503 120.22 465.733 119.803 465.955 119.384C467.965 121.687 470.054 123.954 472.152 126.143C482.04 136.464 493.058 146.054 499.344 151.134L499.344 151.135C503.976 154.878 508.774 158.389 513.146 161.632C517.624 164.955 521.755 168.069 525.626 171.368C533.415 178.003 543.753 188.114 548.901 195.254C551.602 199.003 553.832 203.162 555.811 207.704C541.546 205.89 528.176 201.152 512.073 194.582L507.277 192.627C502.524 190.687 497.906 188.774 493.454 186.76L493.452 186.76L493.2 186.633C492.873 186.459 492.302 186.125 491.263 185.477C490.221 184.827 488.3 183.597 486.431 182.637C479.245 178.943 473.235 175.289 465.296 170.951L465.295 170.95C465.293 170.949 465.291 170.948 465.29 170.947L465.295 170.95L465.296 170.951L465.298 170.953C465.298 170.953 465.297 170.952 465.296 170.951C465.294 170.95 465.292 170.949 465.29 170.947C465.289 170.947 465.287 170.946 465.286 170.945C465.253 170.925 465.155 170.861 464.978 170.738C464.974 170.735 464.97 170.732 464.965 170.729C464.635 170.498 464.233 170.201 463.672 169.78C462.795 169.121 461.027 167.758 459.369 166.721L459.367 166.72L457.907 165.814C457.17 165.36 456.448 164.923 455.742 164.497C456.53 163.668 458.571 161.365 459.572 158.007C460.274 155.65 460.342 153.15 459.768 150.759C458.457 145.292 454.628 141.151 449.754 139.288C451.413 137.601 453.022 135.855 454.584 134.054C456.631 131.693 461.694 126.823 465.263 120.636L465.263 120.635ZM378.886 182.305C374.317 173.311 369.901 164.239 365.569 155.103C367.967 157.697 370.705 160.068 373.804 161.903L374.338 162.213C379.902 165.359 385.967 166.535 391.634 166.664C389.218 169.282 387.169 171.932 385.483 174.146C382.89 177.551 381.205 179.835 379.38 181.757C379.21 181.936 379.045 182.119 378.886 182.305ZM265.862 85.4864C271.16 81.2602 276.717 76.0969 281.128 69.7269C283.222 78.9899 285.585 88.6955 288.085 97.6986C279.539 106.128 270.281 114.16 260.699 123.055C257.758 125.785 254.573 127.814 250.177 130.003C250.08 130.051 249.983 130.1 249.888 130.151L249.603 130.305C239.785 135.775 227.373 141.226 217.251 142.121C212.38 142.552 209.304 141.806 207.436 140.729C205.955 139.874 203.88 138.058 202.355 133.083L202.21 132.591C201.268 129.312 201.55 125.25 203.11 120.473C219.08 115.362 232.977 108.445 246.972 98.839C252.2 95.2508 259.466 90.5887 265.862 85.4864ZM402.674 58.4314C403.931 58.1217 405.81 57.6293 407.717 56.873C408.104 57.1113 408.503 57.333 408.915 57.5345C411.49 58.7935 414.213 59.1557 415.14 59.2704C416.573 62.8344 417.416 64.6824 418.372 67.1617C422.023 76.6316 426.053 85.9291 428.465 95.5174C430.297 102.801 430.724 108.622 429.869 113.177C428.634 113.824 427.525 114.375 426.536 114.794L426.112 114.97C420.337 117.277 412.887 117.992 408.531 116.793C407.557 116.524 405.544 115.413 402.734 112.171C400.057 109.083 397.615 105.182 395.459 101.314C389.097 89.8902 389.93 77.9747 393.237 60.9216C393.283 60.6855 393.335 60.4425 393.393 60.1884C394.1 60.0861 394.783 59.9818 395.43 59.8767C397.863 59.4819 400.399 58.9922 402.674 58.4314ZM346.928 93.3287L346.929 93.328C347.008 93.2531 347.085 93.1777 347.163 93.1029C346.278 100.6 346.212 108.215 347.313 115.585L347.101 115.12L347.091 115.097L347.066 115.041C344.804 110.076 342.537 105.098 340.256 100.108C342.978 97.4027 345.27 94.915 346.928 93.3287ZM129.003 81.4828C128.211 82.9569 127.43 84.4353 126.658 85.9161L126.446 78.5343C127.168 79.6503 128.032 80.6381 129.003 81.4828ZM521.115 85.4148C514.666 80.6865 510.465 76.0551 508.312 71.2097C508.91 71.3997 509.529 71.6182 510.167 71.8679C514.984 73.7533 519.079 76.7255 521.314 79.3241L521.317 79.3275C521.615 79.6738 521.895 80.0013 522.159 80.3117C521.791 81.2681 521.471 82.3555 521.282 83.5514C521.184 84.1734 521.129 84.7959 521.115 85.4148ZM194.65 59.5302C195.579 59.0501 196.626 58.543 197.796 57.9908C195.921 59.4749 194.088 61.019 192.301 62.6158C192.606 62.014 192.929 61.3893 193.271 60.7586C193.412 60.4991 193.543 60.2655 193.661 60.0575C193.948 59.8988 194.277 59.7233 194.65 59.5302ZM326.307 48.8172C326.63 48.7316 327.032 48.6197 327.492 48.4755C329.712 49.3464 332.011 49.8443 334.272 50.0824C330.701 53.6993 327.489 57.1739 324.899 59.9019C324.188 60.651 323.461 61.4108 322.722 62.1807C321.4 59.4168 320.047 56.6422 318.662 53.8869C319.603 52.6318 320.306 51.2549 320.772 49.8171C322.41 49.6296 324.366 49.3316 326.307 48.8172ZM229.384 19.5551C229.36 16.6588 228.999 10.307 230.512 8.04481C232.09 9.14155 233.857 20.3061 234.08 23.0807C234.403 27.0902 235.815 32.8856 233.137 36.2668C232.251 37.3853 230.632 38.0343 229.454 37.0464C228.313 34.462 228.776 25.1167 228.967 22.0344C225.493 23.0791 218.685 23.6693 214.862 24.1269C215.553 27.0082 216.11 30.7373 215.734 33.6763C214.497 35.0849 212.147 37.485 210.18 37.0048C208.898 34.8609 210.742 18.4207 210.895 14.9792C210.947 13.8238 211.099 11.9941 212.068 11.2191L212.68 11.5287C213.624 12.7961 214.535 20.7897 214.83 22.8419C218.145 21.7923 226.137 19.9292 229.384 19.5551ZM318.3 11.2266C319.881 11.0943 321.596 10.7291 322.881 11.5976C325.389 16.1532 309.344 30.6278 305.773 34.0617C309.757 33.9437 323.043 31.2904 325.423 33.6075L325.348 34.1258C323.09 36.139 314.979 36.2972 311.997 36.3002C308.658 36.1865 304.942 36.9124 301.343 36.925C304.507 32.2666 319.2 19.9086 319.138 14.6928C316.877 13.1701 305.968 15.4463 304.079 14.5066C305.534 13.1163 315.88 11.6143 318.3 11.2266ZM342.415 12.706C350.4 11.3638 356.985 18.2464 353.009 25.9644C350.562 30.7149 344.056 34.6178 339.121 36.2477C321.548 37.3139 328.714 19.3347 337.738 13.7379C338.212 13.444 340.487 13.654 342.28 12.7728L342.415 12.706ZM291.973 35.8248C290.574 33.4599 291.231 14.723 291.996 11.5008C293.391 11.6704 293.933 12.4047 294.212 13.7788C295.447 19.8488 296.479 26.1961 296.975 32.3654C297.046 33.2448 295.811 34.1674 295.188 34.7151C294.043 35.4203 293.254 36.0574 291.973 35.8248ZM389.31 22.5705C384.469 17.5459 393.281 13.4111 397.131 12.3909C398.766 12.4778 401.287 12.8173 402 14.568C399.673 16.2283 394.723 12.2939 392.759 16.4C393.05 20.7599 405.012 23.2789 404.182 29.0029C403.778 31.7938 398.921 34.3092 396.421 34.9988C394.233 35.603 391.954 35.116 389.78 34.7035C388.169 34.3085 386.663 34.1583 385.735 32.8156C385.405 29.9526 389.169 28.2043 391.475 27.3483C394.712 29.1783 395.538 30.1912 399.281 31.4378C396.452 26.9382 392.774 26.1626 389.31 22.5705ZM376.046 25.1411C377.156 19.9214 377.953 13.2966 382.154 9.81406L382.579 10.0466C384.214 13.8932 382.627 25.2601 381.795 29.5752C380.04 30.9562 376.827 32.9484 374.878 34.2418C371.779 31.4813 365.602 23.4123 362.53 19.7666C362.281 23.6085 362.129 28.9583 361.051 32.508C360.164 33.1707 359.066 33.8874 358.14 34.5282C357.616 34.785 357.568 34.7608 356.967 34.7438C356.595 34.0113 356.841 30.2527 357.015 29.2921C357.617 25.9226 357.578 14.5473 360.746 12.9276L361.171 13.12L361.341 14.585C362.446 15.5626 362.56 12.0704 366.506 15.7882C369.722 18.8142 372.899 22.0393 376.046 25.1411ZM253.794 31.4515C258.321 29.311 258.657 12.7351 246.86 12.6275C243.114 17.8934 241.953 25.0759 247.835 29.5663C249.565 30.8872 251.254 31.1124 253.28 31.3823C253.449 31.4049 253.621 31.4277 253.794 31.4515ZM279.839 17.689C278.285 13.8094 274.885 12.6242 271.132 12.0307C270.518 15.796 270.344 19.9478 270.184 23.7753L270.175 23.9769C272.6 22.3525 273.867 22.0652 276.74 21.4778C278.365 21.1055 280.616 19.629 279.839 17.689Z" fill="var(--fill-0, black)"/>
<path fill-rule="evenodd" clip-rule="evenodd" d="M418.139 29.8234C421.964 29.3739 425.836 29.3644 428.893 29.4544C434.534 29.6205 440.598 30.2658 444.845 31.2216C450.953 32.5964 455.4 37.8676 455.727 44.1199C455.865 46.7629 455.252 49.3081 454.051 51.5175C455.455 53.9444 456.831 56.4473 458.158 58.9969C458.592 58.3417 459.019 57.7185 459.437 57.1308C466.622 47.0138 477.713 36.1119 492.143 31.5026L492.833 31.2878C496.881 30.0598 501.745 29.4888 503.488 29.1973C505.306 28.8773 507.131 28.8553 507.771 28.8475L507.836 28.8467C508.954 28.8324 510.03 28.8554 510.544 28.8665H510.546C526.827 29.2188 544.446 34.7039 557.916 44.9479C558.845 45.6536 559.836 46.482 560.837 47.3672C561.384 47.1888 561.956 47.0272 562.552 46.8925C565.489 46.2286 571.382 45.765 576.582 50.1124L576.829 50.3232L577.046 50.5162C579.268 52.5312 580.785 55.2101 581.367 58.1579C582.741 65.1145 579.09 70.0696 578.885 70.396C578.874 70.4131 578.864 70.4301 578.853 70.4472L578.833 70.4785C571.692 81.6755 560.753 91.2914 548.107 96.5398L548.07 96.5592C547.982 96.6063 547.799 96.7034 547.484 96.8753L547.395 96.9236C546.807 97.2439 545.644 97.8778 544.367 98.4304C544.209 98.499 544.035 98.5721 543.847 98.6487C549.621 101.599 555.895 104.73 561.262 107.88C565.69 110.406 572.253 114.377 578.539 118.498C584.553 122.44 591.377 127.201 595.503 131.164C603.925 139.252 611.788 150.242 617.71 161.815C623.564 173.254 628.076 186.347 628.776 198.811C630.505 220.371 620.439 237.928 608.424 251.164C597.044 263.844 579.817 277.175 561.352 282.152L561.35 282.153C555.313 283.779 546.936 284.334 539.679 284.322C532.418 284.311 524.03 283.728 517.966 282.076L517.965 282.076C491.785 274.944 458.213 254.302 439.07 237.023C433.053 232.075 427.677 227.084 422.768 221.74C421.88 222.443 420.914 223.159 419.934 223.859C417.335 225.715 413.97 227.941 410.201 230.347C402.625 235.182 392.84 241.108 382.962 246.941C363.672 258.333 342.414 270.328 336.819 272.771L336.817 272.771C333.653 274.151 330.598 274.708 328.565 275.016C325.558 275.471 325.676 275.351 324.027 275.647C317.889 276.746 311.766 273.645 309.021 268.047C306.276 262.448 307.574 255.709 312.201 251.53C315.59 248.47 319.385 244.397 324.216 240.125C323.752 237.734 323.399 235.668 323.191 234.609C322.005 228.676 320.739 222.757 319.398 216.854C313.73 193.098 307.66 169.439 301.187 145.889L301.179 145.861C301.169 145.825 301.159 145.789 301.15 145.754C300.454 143.118 299.572 139.997 298.627 136.657C291.384 142.081 284.133 146.998 278.317 151.257L277.948 151.527C267.385 159.263 242.394 177.565 217.711 188.045C205.436 193.256 191.227 197.438 178.066 195.847C171.177 195.014 164.284 192.559 158.346 187.629C154.631 184.543 151.63 180.772 149.29 176.453C145.851 186.855 142.574 197.192 139.701 207.336C138.102 213.022 136.727 218.769 135.58 224.563L135.516 224.935C135.443 225.386 135.342 226.099 135.167 227.306C134.967 228.686 134.7 230.482 134.357 232.288C134.029 234.014 133.542 236.238 132.794 238.37C132.419 239.441 131.857 240.84 131.018 242.28C130.278 243.551 128.829 245.719 126.316 247.519L126.069 247.691C122.946 249.838 112.453 257.836 100.208 266.58C94.4487 270.693 88.5219 274.802 83.6518 277.863C81.2539 279.371 78.8161 280.813 76.6362 281.89C75.5705 282.417 74.2165 283.033 72.7512 283.505L72.7059 283.52C71.8126 283.809 68.3849 284.918 64.3224 284.058C61.8457 283.533 59.5578 282.346 57.7038 280.622C54.2965 277.454 53.1184 273.469 52.7084 272.011C52.128 269.945 51.7895 267.767 51.5681 265.795C51.1189 261.794 50.9685 256.903 50.9794 251.715C51.0014 241.241 51.693 227.981 52.6109 214.784C53.5157 201.775 54.664 188.516 55.6672 177.635C54.9731 177.865 54.3246 178.06 53.7588 178.221C52.5655 178.561 51.3249 178.87 50.5129 179.078C49.5658 179.32 49.1368 179.44 48.9299 179.507C44.1192 181.139 39.3799 182.973 34.7248 185.005C33.7639 185.438 32.901 185.883 31.3725 186.635C30.1913 187.217 28.6615 187.955 26.9685 188.628L26.2332 188.911C24.0057 189.746 20.9859 190.224 19.4011 190.434C18.3592 190.572 17.0564 190.71 15.7487 190.747C15.1097 190.765 14.1919 190.767 13.1644 190.668L13.1469 190.666C12.4984 190.603 10.1068 190.372 7.5368 189.039C2.01161 186.173 -0.950037 179.996 0.273626 173.893C0.974465 170.398 2.70459 167.922 3.74323 166.626C4.87884 165.209 6.0956 164.094 7.02526 163.311C8.85832 161.766 10.9451 160.383 12.3876 159.441C13.5824 158.66 14.4315 158.117 15.1315 157.651C15.3382 157.137 15.5657 156.567 15.8026 155.955C16.4454 154.297 17.3765 151.817 17.8535 150.628L17.8965 150.522C20.0706 145.23 22.3331 139.974 24.6829 134.758C33.0022 116.12 41.6947 97.6505 50.755 79.3609C51.9484 76.9255 54.3073 72.058 56.7701 67.3486C58.9024 63.2709 62.1105 57.314 64.9888 53.981L65.0399 53.9217C66.976 51.705 69.1844 49.7411 71.6122 48.0758C75.6662 45.2621 79.9103 42.9057 83.5481 40.9068C87.4091 38.7852 90.5704 37.0725 93.4836 35.1714L94.3573 34.6101C95.3178 34.0042 96.525 33.2851 97.8419 32.643C99.4769 31.8458 102.289 30.6536 105.75 30.4257C109.709 30.1651 114.453 31.2117 118.391 34.8365C121.668 37.8517 123.17 41.5551 123.916 44.4207L124.055 44.9827L124.248 45.8292C125.592 51.9565 125.924 58.4998 126.066 63.9711C126.514 63.1943 127.041 62.4527 127.647 61.7585C132.714 55.9527 138.286 51.637 142.676 48.0206L143.612 47.254C153.358 39.3192 165.556 30.9198 180.846 27.943C181.395 27.8363 182.619 27.5683 184.671 27.1327C186.565 26.7307 188.915 26.2411 191.255 25.7952C192.82 25.4972 194.499 25.1959 196.104 24.9508V13.9684C196.104 6.25388 202.358 2.30968e-06 210.072 2.30968e-06H404.171C411.885 2.30968e-06 418.139 6.25388 418.139 13.9684V29.8234ZM183.516 41.6543C186.324 41.1077 201.742 37.5455 203.241 38.521C203.287 38.9197 203.426 39.4834 203.067 39.7214C198.598 42.6793 188.317 46.4422 184.157 49.5525L184 49.6684C182.405 50.8663 179.444 57.1078 178.428 59.1333C166.63 82.6615 157.531 108.243 149.158 133.208C141.489 156.076 132.822 180.363 126.261 203.529C124.552 209.603 123.084 215.744 121.861 221.935C121.242 225.166 120.442 234.611 118.159 236.179L117.49 236.648C109.58 242.269 71.576 271.315 67.2157 270.393C60.9706 264.586 69.3789 180.647 71.4662 159.141L71.7936 155.714L75.3751 116.987C76.0665 109.366 77.0096 97.2301 78.3052 89.8516C73.3507 97.88 68.2011 107.684 63.5422 116.023L36.5656 164.602C39.841 163.958 52.4348 160.933 54.623 162.172L54.61 162.695L54.4224 162.859C52.3837 164.528 47.3065 165.335 44.5395 166.247C39.2884 168.025 34.1159 170.026 29.0365 172.248C26.486 173.392 23.9337 174.857 21.334 175.83C20.1518 176.273 14.9219 177.134 13.9692 176.639C14.6214 173.387 25.2333 168.743 26.6718 166.057L26.7686 165.879C27.7661 164.016 29.9094 158.092 30.8173 155.83C32.9383 150.667 35.1459 145.54 37.4387 140.452C45.69 121.966 54.3116 103.647 63.2987 85.5076C65.7557 80.4931 72.3534 66.825 75.5606 63.111C76.7289 61.7733 78.0621 60.5881 79.5274 59.5848C86.3164 54.8631 94.2021 51.3818 101.117 46.8693C104.877 44.4161 109.044 42.2001 110.461 48.1959C112.167 55.4104 112.024 63.3992 112.249 70.7745L113.182 103.242L114.135 129.537C114.29 133.208 114.854 142.441 114.602 145.815C126.085 118.597 137.88 91.5318 153.913 66.6024L153.053 65.5173C145.004 69.4758 146.627 69.0094 138.171 70.943C142.295 66.2179 146.753 62.7598 151.557 58.8025C161.005 51.0198 171.265 44.0393 183.516 41.6543ZM505.839 42.9666C506.785 42.7618 509.228 42.8097 510.243 42.8315C523.885 43.1267 538.577 47.7878 549.464 56.0688C552.258 58.1922 556.381 62.345 558.894 64.9737C560.513 63.4402 565.555 59.0306 567.663 60.8636L567.691 61.0273C567.793 61.7955 567.493 62.2739 567.097 62.9023L567.056 62.9685L566.508 63.8087C560.759 72.4505 552.164 79.7805 542.575 83.7131C540.47 84.5773 537.158 87.2408 535.08 85.7272C535.338 84.094 538.673 81.2193 540.003 79.9379C537.476 77.1835 536.868 76.044 532.771 71.2288L531.903 70.2153C524.053 61.0883 507.548 53.4294 495.359 57.1117C494.53 57.3628 492.742 66.8566 493.14 69.0749C497.961 95.981 533.523 107.769 554.276 119.976C562.636 124.741 579.679 135.333 585.826 141.238L586.493 141.887C600.495 155.695 613.793 180.218 614.837 199.72C616.217 216.041 608.756 230.016 598.082 241.775C587.772 253.281 572.711 264.624 557.716 268.665L557.313 268.77C548.681 270.938 530.013 270.88 521.636 268.598C497.949 262.146 466.078 242.67 448.191 226.44C434.819 215.482 425.202 204.644 416.671 189.637C414.773 186.295 412.186 182.025 410.689 178.547C403.56 183.076 397.245 188.196 389.511 191.374C394.481 186.138 398.548 179.082 404.171 173.843C414.573 164.154 429.828 159.316 442.239 152.579C443.733 151.768 445.727 152.107 446.185 154.017C445.541 156.177 433.775 163.189 431.181 164.789L431.394 164.979C437.203 170.096 445.391 174.455 451.961 178.563C453.994 179.835 456.596 182.115 458.521 183.166C465.722 187.098 472.756 191.314 480.05 195.062L480.511 195.306C482.833 196.569 485.412 198.454 487.697 199.487C493.931 202.307 500.461 204.931 506.797 207.516C530.278 217.096 550.111 223.758 575.789 222.282C572.023 210.073 567.78 197.562 560.232 187.085C554.103 178.584 542.76 167.614 534.685 160.735C526.157 153.469 516.825 147.301 508.124 140.27C496.237 130.663 465.896 103.506 463.381 89.0576C461.935 80.7569 466.141 71.8121 470.824 65.2199C477.157 56.3034 486.206 47.894 496.886 44.6553C499.82 43.7652 502.83 43.4742 505.839 42.9666ZM379.381 41.1967C382.957 41.0641 402.185 40.7996 403.799 43.0136L403.437 43.4924C400.146 45.3233 386.466 47.3887 382.274 47.0794C381.663 50.5607 380.232 54.6199 379.525 58.2575C376.172 75.5482 374.259 91.9557 383.256 108.111C387.903 116.45 395.215 127.614 404.823 130.26L405.205 130.361C413.261 132.445 423.705 130.974 431.295 127.941C434.49 126.664 438.358 124.476 441.439 122.808C449.596 104.339 438.152 79.6371 431.406 62.1377C429.537 57.2947 426.357 50.5644 425.288 45.6989C423.348 45.7935 416.596 45.7416 415.051 44.9861L415.42 44.5946C421.312 42.5105 435.574 43.4527 441.778 44.849C439.083 45.7596 437.005 46.0825 434.193 46.2486C442.346 57.9827 451.09 74.0263 455.033 87.8293C457.471 96.3635 457.725 105.759 453.165 113.655C450.485 118.3 447.353 121.073 444.029 124.906C432.99 137.642 419.584 146.845 403.206 151.259C396.367 153.103 387.388 153.713 380.92 149.884C372.012 144.61 364.985 129.09 362.359 119.436C357.191 100.453 363.329 76.3826 371.791 59.0323C373.584 55.3564 377.223 50.8469 379.474 47.0623C376.42 46.971 373.716 47.4659 370.477 47.3153C366.12 54.4311 361.204 58.8016 355.664 64.7738C349.574 71.3422 343.717 77.0671 337.271 83.237C332.378 87.9187 328.953 92.2837 323.258 96.5493C338.454 129.546 353.077 162.959 369.812 195.216C373.207 201.758 376.956 208.101 380.349 214.654C385.867 211.078 395.616 210.279 402.021 208.935C405.015 208.305 413.923 205.507 416.135 207.303C416.246 207.944 416.399 208.372 416.025 208.967C412.734 214.189 340.471 255.935 331.231 259.968C328.27 261.26 324.734 261.329 321.563 261.897C328.282 255.83 331.855 251.234 339.849 245.458C338.624 241.947 337.624 235.629 336.9 231.927C335.681 225.83 334.381 219.75 333.004 213.687C327.294 189.751 321.177 165.914 314.655 142.187C312.17 132.778 308.454 120.905 306.546 111.709C296.111 122.212 281.985 131.258 270.064 139.987L269.97 140.055C248.859 155.514 174.516 209.953 159.278 164.459L159.102 163.918C157.335 158.352 156.725 152.484 157.311 146.675C158.744 131.223 165.974 122.446 173.132 109.483L173.825 108.215C182.836 92.2134 195.477 76.5722 210.582 65.8556C222.777 58.0113 232.846 49.8269 246.742 44.9063C257.264 41.1804 282.354 39.0794 271.717 58.4355C264.903 70.8326 250.572 79.426 239.067 87.3225C224.409 97.3839 210.028 104.168 192.69 109.016C188.715 117.431 186.118 127.165 188.783 136.447L189.009 137.206C198.792 169.008 236.18 153.774 256.401 142.508C261.534 139.953 265.966 137.224 270.202 133.292C281.334 122.958 293.342 112.664 303.774 101.654C299.128 86.3522 294.739 67.216 291.492 51.6027C290.09 52.9257 285.211 55.7723 284.449 52.8072C284.69 52.0287 285.192 51.4437 285.844 50.9609C291.253 46.9548 298.347 46.6258 304.719 45.3408C305.635 45.1558 306.243 44.9783 307.188 45.0714L307.484 45.5106C306.604 46.6441 301.657 47.567 299.798 48.1563C306.705 60.3181 312.85 73.9927 318.758 86.7277C324.043 80.8228 329.579 75.2595 335.028 69.5209C342.017 62.1588 350.93 52.3486 359.338 46.6851C357.886 46.3969 355.862 46.1948 354.934 45.0871L355.12 44.5455C358.246 42.3198 374.86 41.5768 379.381 41.1967ZM465.263 120.635C465.503 120.22 465.733 119.803 465.955 119.384C467.965 121.687 470.054 123.954 472.152 126.143C482.04 136.464 493.058 146.054 499.344 151.134L499.344 151.135C503.976 154.878 508.774 158.389 513.146 161.632C517.624 164.955 521.755 168.069 525.626 171.368C533.415 178.003 543.753 188.114 548.901 195.254C551.602 199.003 553.832 203.162 555.811 207.704C541.546 205.89 528.176 201.152 512.073 194.582L507.277 192.627C502.524 190.687 497.906 188.774 493.454 186.76L493.452 186.76L493.2 186.633C492.873 186.459 492.302 186.125 491.263 185.477C490.221 184.827 488.3 183.597 486.431 182.637C479.245 178.943 473.235 175.289 465.296 170.951C465.297 170.952 465.298 170.953 465.298 170.953C465.298 170.953 465.295 170.951 465.29 170.947L465.295 170.95L465.296 170.951C465.294 170.95 465.292 170.948 465.288 170.946L465.29 170.947C465.295 170.951 465.298 170.953 465.298 170.953L465.295 170.95L465.29 170.947L465.288 170.946L465.286 170.945C465.253 170.925 465.155 170.861 464.978 170.738L464.965 170.729C464.635 170.498 464.233 170.201 463.672 169.78C462.795 169.121 461.027 167.758 459.369 166.721L459.367 166.72L457.907 165.814C457.17 165.36 456.448 164.923 455.742 164.497C456.53 163.668 458.571 161.365 459.572 158.007C460.274 155.65 460.342 153.15 459.768 150.759C458.457 145.292 454.628 141.151 449.754 139.288C451.413 137.601 453.022 135.855 454.584 134.054C456.631 131.693 461.694 126.823 465.263 120.636L465.263 120.635ZM378.886 182.305C374.317 173.311 369.901 164.239 365.569 155.103C367.967 157.697 370.705 160.068 373.804 161.903L374.338 162.213C379.902 165.359 385.967 166.535 391.634 166.664C389.218 169.282 387.169 171.932 385.483 174.146C382.89 177.551 381.205 179.835 379.38 181.757C379.21 181.936 379.045 182.119 378.886 182.305ZM265.862 85.4864C271.16 81.2602 276.717 76.0969 281.128 69.7269C283.222 78.9899 285.585 88.6955 288.085 97.6986C279.539 106.128 270.281 114.16 260.699 123.055C257.758 125.785 254.573 127.814 250.177 130.003C250.08 130.051 249.983 130.1 249.888 130.151L249.603 130.305C239.785 135.775 227.373 141.226 217.251 142.121C212.38 142.552 209.304 141.806 207.436 140.729C205.955 139.874 203.88 138.058 202.355 133.083L202.21 132.591C201.268 129.312 201.55 125.25 203.11 120.473C219.08 115.362 232.977 108.445 246.972 98.839C252.2 95.2508 259.466 90.5887 265.862 85.4864ZM402.674 58.4314C403.931 58.1217 405.81 57.6293 407.717 56.873C408.104 57.1113 408.503 57.333 408.915 57.5345C411.49 58.7935 414.213 59.1557 415.14 59.2704C416.573 62.8344 417.416 64.6824 418.372 67.1617C422.023 76.6316 426.053 85.9291 428.465 95.5174C430.297 102.801 430.724 108.622 429.869 113.177C428.634 113.824 427.525 114.375 426.536 114.794L426.112 114.97C420.337 117.277 412.887 117.992 408.531 116.793C407.557 116.524 405.544 115.413 402.734 112.171C400.057 109.083 397.615 105.182 395.459 101.314C389.097 89.8902 389.93 77.9747 393.237 60.9216C393.283 60.6855 393.335 60.4425 393.393 60.1884C394.1 60.0861 394.783 59.9818 395.43 59.8767C397.863 59.4819 400.399 58.9922 402.674 58.4314ZM346.928 93.3287L346.929 93.328C347.008 93.2531 347.085 93.1777 347.163 93.1029C346.278 100.6 346.212 108.215 347.313 115.585L347.101 115.12L347.091 115.097L347.066 115.041C344.804 110.076 342.537 105.098 340.256 100.108C342.978 97.4027 345.27 94.915 346.928 93.3287ZM129.003 81.4828C128.211 82.9569 127.43 84.4353 126.658 85.9161L126.446 78.5343C127.168 79.6503 128.032 80.6381 129.003 81.4828ZM521.115 85.4148C514.666 80.6865 510.465 76.0551 508.312 71.2097C508.91 71.3997 509.529 71.6182 510.167 71.8679C514.984 73.7533 519.079 76.7255 521.314 79.3241L521.317 79.3275C521.615 79.6738 521.895 80.0013 522.159 80.3117C521.791 81.2681 521.471 82.3555 521.282 83.5514C521.184 84.1734 521.129 84.7959 521.115 85.4148ZM194.65 59.5302C195.579 59.0501 196.626 58.543 197.796 57.9908C195.921 59.4749 194.088 61.019 192.301 62.6158C192.606 62.014 192.929 61.3893 193.271 60.7586C193.412 60.4991 193.543 60.2655 193.661 60.0575C193.948 59.8988 194.277 59.7233 194.65 59.5302ZM326.307 48.8172C326.63 48.7316 327.032 48.6197 327.492 48.4755C329.712 49.3464 332.011 49.8443 334.272 50.0824C330.701 53.6993 327.489 57.1739 324.899 59.9019C324.188 60.651 323.461 61.4108 322.722 62.1807C321.4 59.4168 320.047 56.6422 318.662 53.8869C319.603 52.6318 320.306 51.2549 320.772 49.8171C322.41 49.6296 324.366 49.3316 326.307 48.8172ZM229.384 19.5551C229.36 16.6588 228.999 10.307 230.512 8.04481C232.09 9.14155 233.857 20.3061 234.08 23.0807C234.403 27.0902 235.815 32.8856 233.137 36.2668C232.251 37.3853 230.632 38.0343 229.454 37.0464C228.313 34.462 228.776 25.1167 228.967 22.0344C225.493 23.0791 218.685 23.6693 214.862 24.1269C215.553 27.0082 216.11 30.7373 215.734 33.6763C214.497 35.0849 212.147 37.485 210.18 37.0048C208.898 34.8609 210.742 18.4207 210.895 14.9792C210.947 13.8238 211.099 11.9941 212.068 11.2191L212.68 11.5287C213.624 12.7961 214.535 20.7897 214.83 22.8419C218.145 21.7923 226.137 19.9292 229.384 19.5551ZM318.3 11.2266C319.881 11.0943 321.596 10.7291 322.881 11.5976C325.389 16.1532 309.344 30.6278 305.773 34.0617C309.757 33.9437 323.043 31.2904 325.423 33.6075L325.348 34.1258C323.09 36.139 314.979 36.2972 311.997 36.3002C308.658 36.1865 304.942 36.9124 301.343 36.925C304.507 32.2666 319.2 19.9086 319.138 14.6928C316.877 13.1701 305.968 15.4463 304.079 14.5066C305.534 13.1163 315.88 11.6143 318.3 11.2266ZM342.415 12.706C350.4 11.3638 356.985 18.2464 353.009 25.9644C350.562 30.7149 344.056 34.6178 339.121 36.2477C321.548 37.3139 328.714 19.3347 337.738 13.7379C338.212 13.444 340.487 13.654 342.28 12.7728L342.415 12.706ZM291.973 35.8248C290.574 33.4599 291.231 14.723 291.996 11.5008C293.391 11.6704 293.933 12.4047 294.212 13.7788C295.447 19.8488 296.479 26.1961 296.975 32.3654C297.046 33.2448 295.811 34.1674 295.188 34.7151C294.043 35.4203 293.254 36.0574 291.973 35.8248ZM389.31 22.5705C384.469 17.5459 393.281 13.4111 397.131 12.3909C398.766 12.4778 401.287 12.8173 402 14.568C399.673 16.2283 394.723 12.2939 392.759 16.4C393.05 20.7599 405.012 23.2789 404.182 29.0029C403.778 31.7938 398.921 34.3092 396.421 34.9988C394.233 35.603 391.954 35.116 389.78 34.7035C388.169 34.3085 386.663 34.1583 385.735 32.8156C385.405 29.9526 389.169 28.2043 391.475 27.3483C394.712 29.1783 395.538 30.1912 399.281 31.4378C396.452 26.9382 392.774 26.1626 389.31 22.5705ZM376.046 25.1411C377.156 19.9214 377.953 13.2966 382.154 9.81406L382.579 10.0466C384.214 13.8932 382.627 25.2601 381.795 29.5752C380.04 30.9562 376.827 32.9484 374.878 34.2418C371.779 31.4813 365.602 23.4123 362.53 19.7666C362.281 23.6085 362.129 28.9583 361.051 32.508C360.164 33.1707 359.066 33.8874 358.14 34.5282C357.616 34.785 357.568 34.7608 356.967 34.7438C356.595 34.0113 356.841 30.2527 357.015 29.2921C357.617 25.9226 357.578 14.5473 360.746 12.9276L361.171 13.12L361.341 14.585C362.446 15.5626 362.56 12.0704 366.506 15.7882C369.722 18.8142 372.899 22.0393 376.046 25.1411ZM253.794 31.4515C258.321 29.311 258.657 12.7351 246.86 12.6275C243.114 17.8934 241.953 25.0759 247.835 29.5663C249.565 30.8872 251.254 31.1124 253.28 31.3823C253.449 31.4049 253.621 31.4277 253.794 31.4515ZM279.839 17.689C278.285 13.8094 274.885 12.6242 271.132 12.0307C270.518 15.796 270.344 19.9478 270.184 23.7753L270.175 23.9769C272.6 22.3525 273.867 22.0652 276.74 21.4778C278.365 21.1055 280.616 19.629 279.839 17.689Z" fill="var(--fill-0, black)"/>
</g>
<g id="Vector">
<path d="M505.839 42.9674C506.785 42.7627 509.228 42.8103 510.244 42.8321C523.885 43.1273 538.578 47.7883 549.465 56.0694C552.258 58.1928 556.381 62.3453 558.893 64.974C560.513 63.4406 565.556 59.0312 567.664 60.8643C567.84 61.759 567.499 62.263 567.056 62.9688C561.313 71.9746 552.474 79.654 542.575 83.7135C540.47 84.5776 537.159 87.2416 535.081 85.7279C535.338 84.0948 538.674 81.2201 540.003 79.9387C537.308 77.0005 536.796 75.8999 531.904 70.2158C524.053 61.0888 507.549 53.4303 495.359 57.1126C494.53 57.3637 492.742 66.857 493.141 69.0753C497.961 95.9815 533.524 107.77 554.276 119.977C562.636 124.742 579.679 135.334 585.826 141.239C600.07 154.916 613.777 179.909 614.837 199.721C616.218 216.042 608.756 230.017 598.082 241.775C587.773 253.281 572.712 264.624 557.717 268.666C549.276 270.94 530.146 270.916 521.637 268.599C497.949 262.147 466.079 242.671 448.192 226.441C434.819 215.482 425.202 204.645 416.671 189.637C414.773 186.296 412.186 182.026 410.689 178.548C403.56 183.077 397.245 188.197 389.511 191.374C394.481 186.138 398.548 179.082 404.171 173.843C414.573 164.154 429.828 159.317 442.239 152.579C443.733 151.768 445.727 152.108 446.185 154.018C445.542 156.178 433.774 163.19 431.181 164.789L431.394 164.98C437.203 170.096 445.392 174.455 451.961 178.563C453.994 179.835 456.596 182.116 458.522 183.167C465.723 187.099 472.756 191.314 480.05 195.063C482.487 196.314 485.26 198.386 487.697 199.488C493.931 202.308 500.461 204.932 506.797 207.516C530.278 217.096 550.111 223.759 575.79 222.283C572.023 210.073 567.78 197.563 560.232 187.085C554.103 178.584 542.761 167.615 534.685 160.735C526.158 153.47 516.825 147.301 508.124 140.271C496.237 130.664 465.896 103.507 463.381 89.0585C461.935 80.7576 466.142 71.8129 470.825 65.2206C477.158 56.3041 486.206 47.8946 496.886 44.6559C499.821 43.7657 502.83 43.4751 505.839 42.9674Z" fill="var(--fill-0, #F4F3F3)"/>
<path d="M379.382 41.1969C382.957 41.0643 402.185 40.8 403.799 43.0141L403.437 43.4927C400.146 45.3237 386.466 47.3896 382.274 47.0801C381.663 50.5616 380.232 54.6207 379.525 58.2584C376.172 75.5491 374.259 91.9565 383.256 108.112C387.903 116.45 395.215 127.615 404.823 130.26C412.929 132.492 423.585 131.022 431.295 127.941C434.49 126.665 438.359 124.477 441.44 122.808C449.596 104.34 438.152 79.6376 431.406 62.1382C429.538 57.2952 426.358 50.5652 425.289 45.6997C423.349 45.7942 416.597 45.7422 415.052 44.9867L415.42 44.5955C421.313 42.5113 435.574 43.4532 441.778 44.8496C439.083 45.7601 437.005 46.0831 434.194 46.2492C442.347 57.9833 451.09 74.0267 455.033 87.8298C457.471 96.3641 457.725 105.759 453.165 113.656C450.485 118.3 447.353 121.073 444.03 124.906C432.99 137.642 419.585 146.846 403.207 151.26C396.368 153.104 387.388 153.714 380.921 149.884C372.013 144.61 364.985 129.09 362.36 119.437C357.191 100.454 363.33 76.3833 371.791 59.033C373.585 55.357 377.223 50.8474 379.474 47.0628C376.42 46.9715 373.717 47.4666 370.477 47.316C366.12 54.4318 361.204 58.8023 355.664 64.7747C349.574 71.343 343.718 77.0673 337.271 83.2372C332.379 87.919 328.953 92.284 323.258 96.5496C338.454 129.547 353.077 162.959 369.812 195.216C373.208 201.759 376.956 208.102 380.349 214.655C385.867 211.078 395.616 210.28 402.021 208.935C405.015 208.306 413.923 205.508 416.136 207.303C416.246 207.944 416.399 208.373 416.025 208.967C412.734 214.19 340.472 255.936 331.232 259.969C328.27 261.261 324.734 261.33 321.563 261.898C328.282 255.83 331.855 251.234 339.849 245.458C338.624 241.947 337.624 235.629 336.9 231.927C335.681 225.83 334.382 219.75 333.004 213.688C327.294 189.752 321.177 165.915 314.656 142.188C312.171 132.779 308.455 120.906 306.546 111.71C296.111 122.212 281.985 131.258 270.065 139.987C248.998 155.413 173.953 210.451 159.102 163.918C157.335 158.353 156.725 152.485 157.311 146.676C158.79 130.725 166.447 121.888 173.825 108.216C182.836 92.2139 195.477 76.5725 210.583 65.8558C222.778 58.0114 232.847 49.8273 246.743 44.9068C257.265 41.1808 282.355 39.0798 271.717 58.4362C264.903 70.8333 250.572 79.4265 239.067 87.323C224.409 97.3845 210.029 104.169 192.691 109.016C188.715 117.431 186.119 127.165 188.784 136.447C198.203 169.248 236.021 153.863 256.401 142.508C261.534 139.954 265.966 137.225 270.202 133.293C281.334 122.959 293.342 112.664 303.774 101.655C299.128 86.3529 294.739 67.2168 291.492 51.6035C290.09 52.9265 285.211 55.7731 284.45 52.808C284.691 52.0295 285.192 51.4443 285.844 50.9615C291.253 46.9553 298.347 46.6261 304.719 45.3411C305.635 45.1561 306.243 44.9786 307.188 45.0717L307.485 45.5111C306.605 46.6446 301.657 47.5677 299.798 48.1571C306.705 60.3189 312.85 73.9935 318.758 86.7285C324.043 80.8235 329.579 75.26 335.028 69.5213C342.017 62.1592 350.931 52.3491 359.338 46.6856C357.886 46.3974 355.862 46.1956 354.934 45.0878L355.12 44.5461C358.245 42.3203 374.86 41.5771 379.382 41.1969ZM225.571 60.5117C210.341 73.8274 203.981 86.7953 195.148 104.363C198.375 103.106 203.131 101.667 205.927 100.46C222.195 93.9895 243.097 86.8004 250.805 69.6267C252.316 66.2596 252.329 63.39 250.164 60.3354C245.634 57.8615 242.972 58.0976 237.931 58.2449C233.738 58.8513 229.705 59.8669 225.571 60.5117Z" fill="var(--fill-0, #F4F3F3)"/>
<path d="M138.171 70.9437C142.295 66.2186 146.753 62.7602 151.557 58.8028C161.006 51.0201 171.265 44.0399 183.516 41.6549C186.324 41.1083 201.742 37.5461 203.241 38.5216C203.287 38.9203 203.427 39.4842 203.067 39.7222C198.598 42.6801 188.317 46.4429 184.157 49.5532L184 49.669C182.405 50.8669 179.444 57.1084 178.429 59.1339C166.63 82.6622 157.531 108.243 149.158 133.208C141.489 156.076 132.823 180.363 126.261 203.529C124.552 209.604 123.084 215.744 121.861 221.935C121.242 225.166 120.442 234.611 118.159 236.179C112.067 240.366 71.7158 271.346 67.2158 270.393C60.5543 264.199 70.5657 169.108 71.7936 155.715L75.3753 116.988C76.0667 109.367 77.0095 97.2309 78.3051 89.8523C73.3506 97.8807 68.2015 107.685 63.5425 116.023L36.5657 164.602C39.8409 163.958 52.4355 160.934 54.6233 162.172L54.6101 162.696C52.7136 164.477 47.3959 165.306 44.5397 166.247C39.2885 168.025 34.116 170.027 29.0365 172.248C26.4861 173.393 23.934 174.857 21.3343 175.831C20.1522 176.274 14.9221 177.134 13.9694 176.64C14.6215 173.388 25.2332 168.744 26.6718 166.058L26.7685 165.88C27.7659 164.017 29.9096 158.093 30.8175 155.831C32.9385 150.668 35.1459 145.541 37.4387 140.452C45.6901 121.966 54.3119 103.648 63.299 85.5079C65.7561 80.4933 72.3538 66.825 75.5609 63.1113C76.7293 61.7736 78.062 60.5889 79.5274 59.5856C86.3164 54.8637 94.2023 51.3826 101.117 46.87C104.877 44.4168 109.044 42.2006 110.462 48.1966C112.167 55.4112 112.024 63.3999 112.249 70.7752L113.182 103.243L114.135 129.538C114.29 133.208 114.854 142.442 114.602 145.816C126.086 118.598 137.88 91.5324 153.913 66.6029L156.305 63.5926L153.053 65.5176C145.004 69.4761 146.627 69.0101 138.171 70.9437Z" fill="var(--fill-0, #F4F3F3)"/>
<path d="M252.436 8.73368C260.787 9.08999 262.737 18.0447 261.147 24.7617C259.705 30.8511 253.029 34.9315 247.218 36.048C233.524 35.1883 236.216 21.5162 243.364 14.5027C246.231 11.6893 248.806 10.4304 252.436 8.73368ZM253.795 31.4519C258.321 29.3114 258.657 12.7355 246.86 12.6279C243.114 17.8939 241.953 25.0766 247.835 29.567C249.71 30.9981 251.536 31.1427 253.795 31.4519Z" fill="var(--fill-0, #F4F3F3)"/>
<path d="M342.415 12.7064C350.401 11.3641 356.985 18.2471 353.009 25.9653C350.562 30.7158 344.056 34.6187 339.121 36.2485C321.548 37.3147 328.714 19.3355 337.738 13.7386C338.211 13.4445 340.487 13.6547 342.28 12.7732L342.415 12.7064ZM344.565 31.7596C346.499 30.6443 347.559 28.7014 348.152 26.4657C349.41 21.7021 346.466 16.9271 341.559 16.0468C339.936 15.7557 338.002 15.9958 336.289 16.1138C334.456 17.8544 332.888 22.2611 332.864 24.7623C332.798 31.2806 339.687 31.8107 344.565 31.7596Z" fill="var(--fill-0, #F4F3F3)"/>
<path d="M269.236 9.57906C269.679 10.1032 269.526 10.5311 269.551 11.3728C270.326 11.7269 273.512 9.91041 274.834 9.92017C279.3 9.95309 287.686 11.6629 283.932 17.9637C282.498 20.3706 279.329 22.0514 276.95 23.4597C283.395 25.5651 289.348 31.3513 281.51 36.3099C276.931 33.73 280.798 28.9618 269.924 26.5181C269.912 29.1183 269.886 30.7975 269.564 33.3609C268.848 33.8557 266.259 35.866 265.538 35.614C264.844 32.5893 267.139 12.3954 269.236 9.57906ZM270.176 23.9774C272.601 22.3529 273.868 22.0658 276.74 21.4785C278.366 21.1062 280.617 19.6296 279.84 17.6897C278.285 13.8099 274.885 12.625 271.132 12.0316C270.507 15.863 270.338 20.0944 270.176 23.9774Z" fill="var(--fill-0, #F4F3F3)"/>
<path d="M382.154 9.81442L382.579 10.0475C384.214 13.8941 382.627 25.2607 381.795 29.5757C380.04 30.9568 376.828 32.9491 374.878 34.2424C371.779 31.4821 365.602 23.4129 362.53 19.7671C362.282 23.6091 362.129 28.9591 361.051 32.5088C360.165 33.1715 359.066 33.8881 358.141 34.5289C357.617 34.7857 357.569 34.7615 356.967 34.7444C356.596 34.0123 356.841 30.2531 357.015 29.2925C357.617 25.9231 357.578 14.5478 360.746 12.9282L361.171 13.1206L361.341 14.5858C362.446 15.5634 362.56 12.0711 366.507 15.7889C369.722 18.815 372.899 22.0399 376.046 25.1418C377.157 19.922 377.953 13.297 382.154 9.81442Z" fill="var(--fill-0, #F4F3F3)"/>
<path d="M230.512 8.04538C232.09 9.14216 233.858 20.3075 234.081 23.0815C234.404 27.091 235.816 32.8859 233.137 36.2671C232.251 37.3857 230.632 38.0352 229.454 37.0471C228.313 34.4628 228.776 25.1167 228.967 22.0347C225.493 23.0794 218.685 23.6701 214.862 24.1278C215.553 27.009 216.11 30.7377 215.734 33.6767C214.497 35.0853 212.147 37.4859 210.18 37.0055C208.898 34.8618 210.743 18.4213 210.896 14.9798C210.947 13.8244 211.1 11.9948 212.068 11.2197L212.68 11.5296C213.625 12.797 214.535 20.7902 214.829 22.8425C218.145 21.7928 226.137 19.9295 229.384 19.5554C229.36 16.6591 228.999 10.3076 230.512 8.04538Z" fill="var(--fill-0, #F4F3F3)"/>
<path d="M397.131 12.3913C398.766 12.4782 401.287 12.8175 402 14.5683C399.673 16.2288 394.724 12.2945 392.76 16.4007C393.05 20.7606 405.012 23.2794 404.183 29.0034C403.778 31.7943 398.922 34.3095 396.422 34.9991C394.233 35.6035 391.954 35.1168 389.781 34.7043C388.17 34.3092 386.664 34.1589 385.735 32.8162C385.406 29.9531 389.17 28.2048 391.475 27.3487C394.712 29.1788 395.538 30.192 399.281 31.4387C396.452 26.939 392.775 26.1634 389.31 22.5713C384.469 17.5466 393.281 13.4115 397.131 12.3913Z" fill="var(--fill-0, #F4F3F3)"/>
<path d="M318.3 11.2271C319.881 11.0948 321.596 10.7295 322.881 11.598C325.39 16.1533 309.344 30.6284 305.773 34.0623C309.757 33.9443 323.043 31.2908 325.423 33.6079L325.348 34.1266C323.09 36.1399 314.979 36.2979 311.997 36.3009C308.658 36.1872 304.943 36.9127 301.343 36.9253C304.508 32.2669 319.201 19.9089 319.138 14.6931C316.877 13.1705 305.968 15.4469 304.08 14.5072C305.534 13.1169 315.88 11.6148 318.3 11.2271Z" fill="var(--fill-0, #F4F3F3)"/>
<path d="M291.996 11.5015C293.392 11.6711 293.933 12.4052 294.212 13.7794C295.447 19.8494 296.479 26.1963 296.975 32.3657C297.046 33.2451 295.811 34.1676 295.188 34.7154C294.043 35.4206 293.254 36.0581 291.973 35.8256C290.575 33.4615 291.231 14.7238 291.996 11.5015Z" fill="var(--fill-0, #F4F3F3)"/>
<path d="M153.053 65.5176L156.305 63.5926L153.913 66.6029L153.053 65.5176Z" fill="var(--fill-0, #F4F3F3)"/>
</g>
</g>
</svg>
